<svg xmlns="http://www.w3.org/2000/svg" width="178" height="266">
  <g fill="none" fill-rule="evenodd">
    <path d="M-156-47h485v340h-485z"/>
    <path stroke="#000" d="M79.515625 208.082031c17.46043.704334 31.616158-6.345303 49.628906-.878906 1.575471.478114-.669134 3.280524-1.484375 4.710937-1.341837 2.354375-3.805444 4.008569-4.898437 6.488282-1.889088 4.285842-2.245433 9.118218-3.910157 13.496094-.73102 1.922431-2.76148 3.257361-3.222656 5.261718-.958119 4.164168-.128623 8.587946-.929687 12.785156-.581549 3.047053-2.552485 5.70811-3.179688 8.746094-.254191 1.231226.930367 2.508173.605469 3.722656-.30586 1.143317-1.756657 3.728181-2.320312 2.6875-2.269588-4.190347-1.755953-9.459046-3.703126-13.808593-2.705727-6.043991-23.830224-34.190841-22.425781-38.84375.536353-1.776934 3.374362-1.904406 5.230469-1.910157 10.880957-.033711 21.903688-.236546 32.59375 1.792969 18.697702 3.549771-52.014841 2.453987-25.339844.769531 60.467098-3.818336 5.208182.809904-3.390625 8.527344-2.055999 1.845262 5.58206.188306 8.277344-.417968 2.708484-.609244 9.061256-5.594855 7.699219-3.175782-3.133576 5.565448-12.871986 7.203051-13.542969 13.554688l-2.171875 4.511718c-.059585.564046 1.152563.674424 1.652344.40625l23.847656-9.722656c1.589447-.852868 4.143428-5.856433 2.847656-4.601562-3.333979 3.22874-11.974101 14.185794-9.035156 10.59375l.808594 1.207031c1.020384-1.247136 3.401732-5.423358 2.289062-4.257813L101.625 244.589844c-.337212.353237-.691529 1.343108-.214844 1.449218 16.41005 3.652875 15.263591-16.662739 6.367188 9.144532-.28215.818477 1.90956 2.014401 2.285156 1.234375 16.697353-34.676545 7.347531-14.110541 7.402344-41.507813.005162-2.580251 4.222603-6.04967 2.0625-7.460937-4.300294-2.809526-11.397263 24.070918-11.53125 29.433593-.298557 11.949381 7.084991-37.367549-3.8125-27.167968-7.555497 7.071618 4.499234 19.972216.5625 27.90625-1.09906 2.215029-11.728978-23.915354-21.589844-19.726563-1.917289.814444 3.775314 2.051956 5.019531 3.722657 2.786278 3.741337 3.751129 8.714661 6.84375 12.207031 2.089969 2.360115 7.317201 7.787213 8.175781 4.753906.936551-3.308771-5.408931-4.346776-7.523437-7.058594-5.3466-6.856923-11.844726-13.317806-14.753906-21.511719-.810658-2.283274 4.902633-.170458 7.257812.398438 3.718767.898272 9.020478.556553 10.773438 3.957031 1.328124 2.576362-5.926109.930408-8.695313.074219-4.168419-1.288802-12.080988-1.988652-11.46875-6.308594.643992-4.543989 8.424378-4.22264 13.003906-4.523437 9.343467-.613707 18.667967 1.905099 28.03125 1.828125 3.558103-.029251 7.106281-3.341784 10.457032-2.144532 2.461098.879372-4.903824 1.91531-7.089844 3.347657-1.732767 1.135361-3.246819 2.630225-4.523438 4.261719-1.611442 2.059391-3.144109 4.26259-4.0625 6.710937-.299576.798646.188922 3.224308.613282 2.484375 2.069849-3.609086 8.587147-10.365519 4.613281-11.597656l1.019531-8.925782c-20.760314-6.436944 3.71122 14.843168-8.132812 13.625-2.875923-.29579-2.224897-6.564865-5.078125-7.03125l-3.355469-1.679687c-6.948379-1.135771-27.575952-4.805858-20.996094-2.300781 7.35378 2.799723 31.249899 3.505762 23.386719 3.210937l7.140625-1.695312c-5.244233-.196629-20.925416 1.627852-15.683594 1.375l-.851562-1.476563c75.005587-3.61808 11.056249.019716 13.921875 3.09375 14.19518 15.227557 15.04009-19.405159 1.472656 2.746094-1.143623 1.867169 5.187172-.880212 6.511719.863281l5.023437-1.496093c3.333279 4.387574-2.496401 11.712371-3.535156 15.078124-1.931609 6.258764 15.96771-11.692482-.273437-4.496093-7.233914 3.205319-15.951463 15.84815-14.398438 24.601562.060279.339756 1.172878.308574 1.035156-.007812l-.4375-6.355469c-9.417644-21.635128-17.243589-37.151582-.875 8.277344.479664 1.331245 3.693974 4.271782 2.898438 3.101562-2.562215-3.768972-17.448056-21.882281-18.125-28.933594-.173044-1.802489 3.742332.172017 5.332031 1.039063 4.53091 2.471227 7.58092 9.156391 12.730469 8.8125 4.071221-.271879-4.842406-6.752999-8.167969-9.117187-3.293271-2.341232-7.736078-2.560211-11.195313-4.648438-2.874666-1.735343-9.577894-3.991042-7.550781-6.667969 2.508977-3.313256 18.594064 4.159205 8.355469-.332031m-3.394531-59.464844c-6.038906 7.496572-17.137046 4.604199-24.675782 11.730469-.401207.379256-.529362 1.837326-.007812 1.65625 8.890746-3.086759 25.060831-11.45776 35.171875-13.652344.935313-.203008 3.633247.949108 2.679687 1.03125-9.542233.82199-23.358057-3.519261-31.511718 3.59375-3.754825 3.275598 9.938018 1.121481 14.917968.953125 6.155355-.208093 12.203916-2.283103 18.359375-2.078125 3.583864.119344-6.914515 2.28867-10.5 2.339844-7.7454.110546-15.417879-1.869292-23.164062-1.859375-3.52367.004511-13.780525.91353-10.398438 1.902344 12.744031 3.725944 25.049588 4.962257 34.085938-4.394531m25.097656-5.351563c4.881511 3.458333 10.032726 6.564427 14.644532 10.375 4.318067 3.567868 17.665109 11.86826 12.066406 11.695312-6.458278-.199499-29.163966-12.905692-33.636719-22.257812-.910468-1.903707 4.168018 1.086911 5.902344 2.289062 3.320466 2.301589 6.193243 5.206423 9.042969 8.070313 4.493081 4.515416 8.277387 9.725432 12.960937 14.042969.61076.563029 3.276933.444071 2.484375.195312-13.557649-4.25532 9.025303 8.42824-15.832031-12.277344-3.254597-2.711003-14.389123-8.937583-10.707031-6.84375 70.7964 40.25861 13.38009 8.596688 1.359374.066407M58.398437 38.9804688C-38.971141 90.384842 120.838938 6.9331726 32.027344 50.453125c-3.641763 1.7845569-6.233112 8.290124-10.035156 6.878906-3.637036-1.349971-.584034-7.9057095-2.214844-11.425781l-2.523438-2.7460938c-.921012-1.9879868-.625342-4.4374406-1.691406-6.3515624-3.840029-6.8947853-9.062643-12.956594-12.902344-19.8515625-.93575-1.6803307-3.186757-5.336811-1.285156-5.625 5.990725-.907899 11.890761 2.4126837 17.910156 3.1054687 20.67797 2.3798717 21.028259 9.6857275 35.558594 28.2695312.401493.5134957 2.39001.9840195 1.859375.6054688-14.214192-10.1402873-25.759433-19.6591333-37.710937-31.0859375-.977458-.934545 2.810542.2585587 3.925781 1.0234375 4.46696 3.0636324 8.631621 6.5787395 12.574219 10.2929688 5.178385 4.8784361 11.939388 8.8967802 14.738281 15.4375 1.027225 2.400519-5.187739.967507-7.792969.7929687-1.970104-.1319878-4.008739-.6371536-5.675781-1.6953125-8.471677-5.3774155-16.710611-11.1625906-24.515625-17.46875-2.266693-1.8314025-4.064193-4.2576814-5.507813-6.7890625C4.610652 10.0895247-1.458404-.9934611 1.628906 1.9921875c9.192989 8.8902737 16.660112 50.5139976 17.320313 52.0859375.719341 1.712752 3.18561-2.0964771 5.011719-2.4375 9.295966-1.7360069 20.653468 2.052007 28.121093-3.75 6.152845-4.7804818-15.770517 1.7602451-23.375.0625-1.94142-.4334334 4.80995-2.5331415 4.058594-4.375l2.5625-6.1523438c-.663864-1.6273833-3.526658-.7704365-5.253906-.4453124-3.588099.6753963-7.717313 5.8558639-10.414063 3.3945312-2.439098-2.2261739 4.922564-5.6036871 4.417969-8.8671875-.806584-5.2166344-5.145273-9.2221657-7.910156-13.71875-.939994-1.5287299-1.866144-3.125862-3.191407-4.3359375-1.538462-1.4047454-3.836882-1.8553792-5.257812-3.3789062C6.293044 8.5455711 3.583024 2.8107789 4.699219 4.578125c4.2618 6.7479978 9.002252 13.2525444 12.460937 20.4453125 2.000568 4.160431 5.479709 17.615304 3.777344 13.3242188l-.007812 8.3906249c-1.480906-3.7328614-.176641-8.1430934-1.410157-11.9648437C16.532628 25.5192374 5.636134 17.1493136 8.367188 7.8164063c1.779785-6.0821127 11.366954 5.9126057 16.066406 10.1640625C59.93925 50.1013998 3.441428 9.9430164 44.886719 40.015625c1.746675 1.2673833 4.984027.8899385 5.792968 2.890625.561595 1.388943-3.067453-.1424647-4.480468.3554688-3.798837 1.3386744-7.472311 3.0728071-10.960938 5.0859375-2.232963 1.2885428-4.355896 2.8570922-6.097656 4.7578127-.993107 1.083742-.983548 2.83228-1.90625 3.976562-1.299003 1.61095-3.418606 2.457024-4.632813 4.132813-.445403.614724.136288 3.0219-.011718 2.277344C16.794576 34.3387537 20.953466 42.31387 7.535156 7.109375c-3.011773-7.9017368 3.8228 16.5628189 7.125 24.3476563 3.574181 8.4260218 9.303851 15.7830084 13.375 23.9804687.856934 1.725479.429549 3.920836 1.328125 5.625 1.686885 3.199205 2.689632 8.574622 6.296875 8.835938 6.229585.451281 15.48189-18.6266679 16.925781-20.5351567 1.022015-1.3508659 5.770848-3.3885325 4.132813-2.9570313-4.88745 1.2874819-9.715492 3.0638157-14.097656 5.5820313-4.939723 2.8386167-8.029132 11.4885367-13.609375 10.3398437-5.437767-1.119365-5.924-9.4981079-7.757813-14.7382812-2.541754-7.2631342-6.079617-14.824697-5.265625-22.4765625.303165-2.8498732 5.085595 2.7877792 7.148438 4.7773437C28.889 35.4385694 34.73349 41.0395864 39.300781 47.5976562c1.357296 1.9489105-4.721198-1.6186996-6.234375-3.4492187-5.665804-6.8540323-9.639588-14.9597104-14.90625-22.125-.223403-.3039396-.892022.0698206-1.054687.4101563-1.016297 2.1263486 15.445934 20.9455311 20.722656 27.7109375 1.060401 1.3595649-.705677-3.4791897-1.707031-4.8828125-1.333908-1.8697709-6.058114-2.5617913-5.089844-4.6445313.95333-2.0506033 4.445312.8333333 6.667969 1.25m67.109375 3.4179687c13.082108 2.2023119 9.355101 7.1736029 19.304687 15.6835938 3.637956 3.111584 14.132786 10.863079 12.941407 6.226562-1.332276-5.184844-9.454354-5.171648-13.554688-8.613281-3.795742-3.185971-6.342649-7.6424151-9.910156-11.082031-3.353694-3.2334671-15.416195-8.3058867-10.792969-8.8789062 5.302091-.6571606 9.49532 5.0753459 13.566406 8.5351562 5.513933 4.6860127 10.270143 10.218883 14.972657 15.71875 8.606702 10.066048.863171-2.96491 9.972656-12.7929687 5.645346-6.0906624 14.887426-7.8289052 20.90625-13.5507813 2.060382-1.9587298 2.100768-5.4348673 2.054687-8.2773438-.023061-1.4225046-1.306224 2.5385094-2.128906 3.6992188l-3.039063 1.703125c-2.805401 3.9580996-4.36424 8.7054779-7.152343 12.6757813-2.467261 3.5134181-5.435567 6.6736867-8.527344 9.6523437-4.64752 4.477479-10.057882 8.124212-14.640625 12.667969-.355373.35235.067171 1.81337.40625 1.445312 19.315001-20.9657524 5.874979-9.249283 23.324219-33.9492185 11.786539-16.6842088 3.032059-.3037953 15.359375-12.9335937 1.432594-1.4677462 4.726325-5.8168945 2.695312-5.53125-6.317034.8884366-11.545508 5.4800647-17.554687 7.6210937-22.37456 7.9719016-24.511574 7.1340384-41.539063 21.6601563-.829156.7073519-4.206619.5065351-3.164062.8242187 16.123447 4.9130699 51.849408-26.3075639 53.042968-27.5078125 5.035649-5.0638664-13.655474 4.4188841-19.976562 7.7421875-7.408954 3.8952474-22.060866 5.4919616-20.984375 13.7929688.968164 7.4656802 29.570744-5.0859455 22.417969-2.7382813l8.519531-5.53125c-10.696632 3.510819-31.762113 18.3229756-37.769531 24.390625-3.672671 3.709493 9.669164-4.286023 13.671875-7.6367188 9.956181-8.334385 18.321665-18.4169701 27.910156-27.1718749 1.307598-1.1939203-1.712619 3.1583327-2.972656 4.4023437-8.289088 8.1836601-17.842846 15.0982952-25.589844 23.796875-2.418591 2.715672 6.689738-3.1293569 9.371094-5.5859375 3.981914-3.6481156 6.593153-8.5833503 10.339843-12.4726562.731771-.7596244 3.318474-2.2370469 2.898438-1.2695313-1.071869 2.4689554-3.131557 4.418266-5.074219 6.28125-9.06065 8.6890302-18.467248 17.012767-27.878906 25.320312-2.300001 2.030181 4.110983-4.600303 6.535156-6.480468 5.20877-4.039873 11.342505-6.8573225 16.285157-11.2187502 3.710378-3.2740627 11.896456-15.7561925 9.425781-11.46875C143.032156 43.8882282 121.165941 67.813156 130.066406 61.5l.402344 2.0625c1.545013-1.095887 22.098158-19.0653638 19.808594-23.15625-2.282721-4.0786574-7.754997 5.3070516-11.085938 8.5859375-4.292573 4.2254905-8.066218 8.9709965-11.660156 13.8046875-.250465.336864 1.013429.558997 1.242188.207031l14.292968-19.957031c.309899-.4768063.326289-1.8398665-.222656-1.6914062-6.686245 1.8082713-12.907634 5.0783696-19.550781 7.0390625-4.863006 1.4352927-17.072282 7.7001727-14.886719 3.1249999 10.634989-22.2628718 16.928833-6.6449381 29.359375-10.5507812 6.330274-1.989057 12.353725-8.5383061 17.96875-11.1367187 1.566897-.7250983 3.81129 1.2570919 5.175781.1992187 1.502623-1.1649647 3.511887-5.668552 1.621094-5.46875-7.480098.7904295-19.262997 11.8060704-23.484375 16.9335938-.958222 1.1639102-2.658923 3.7454487-1.273437 4.3398437C148.398299 50.394168 149.285165 37.8278007 152.964844 32.75c1.109151-1.5305819 5.159732-5.0630267 4.652344-3.2421875-.808918 2.9029248-20.341448 26.2826495-23.363282 29.5312495-.081987.08814 2.473458-4.760547 2.054688-5.261718-1.115075-1.3344872-3.586302-.09507-5.144532-.8671877-2.749724-1.3625147-4.471422-4.7244366-7.46875-5.3828125-4.128669-.9068801-8.418765.8587753-12.644531.9648437-2.931328.0735775 5.903539-.1790726 8.753907-.8671875 2.589516-.625142 4.772453-2.5610295 7.394531-3.03125 3.477674-.6236558 7.307845 1.0932162 10.597656-.1953125 1.293494-.5066262 1.844446-4.3596918.472656-4.140625-3.520477.5621994-11.723816 8.0006876-9.15625 5.5273438l-6.167969.1875c3.512315-3.3834221 8.909111-4.0652401 12.980469-6.75 9.027908-5.9532377 15.904746-15.8635264 26.222657-19.1015625 4.437485-1.3926016-3.07202 8.9223508-5.796876 12.6914062-5.637387 7.7977069-12.703124 14.4557292-19.054687 21.683594"/>
    <path stroke="#000" d="M109.796875 35.1445313c10.852883.6726993 24.423941-15.6342403 30.230469-18.625 4.013366-2.0671585 9.02185-.8576454 13.402344-1.9492188l4.671874-2.578125c1.60811-.4007243 6.299075-.8125684 4.96875.1757813-15.122867 11.2353679-32.581398 3.1887846-41.5625 18.8242187-.766472 1.3343726-7.15189 6.7517196-6.175781 10.0625.283067.9601083 1.142994-1.8243131 2.085938-2.1601562 2.798927-.9968783 5.985879-.6095424 8.75-1.6992188 15.424882-6.0808224 8.23249-5.2603898 20.371093-14.0273437 44.782449-32.3435615 3.045373-2.796906 29.492188-16.359375.400828-.2055527-.181252-1.6570087-.429688-1.28125l-6.605468 7.1367187c-1.493322 2.2586489-1.706895 5.1831362-3.082032 7.515625-2.982738 5.0592827-9.297762 8.715703-9.929687 14.5546875-.520723 4.8114817 6.911515-6.8811396 9.539063-10.9453125 3.698184-5.7201864 15.672305-15.7868324 9.300781-18.1953125-7.353149-2.7795408-11.914318 10.3079272-18.394531 14.7578125-2.89962 1.9911342-6.556354 2.631902-9.570313 4.4453125-1.557551.9371322-2.337923 2.9614576-3.992187 3.7148438-4.681528 2.1320646-19.496345 2.9999685-14.671876 4.7851562 17.418538 6.4453423 53.2962-30.6903356-2.316406 13.1875-1.099543.8675294-3.386348 4.2853893-2.164062 3.6015625 11.956599-6.6893047 13.986204-15.6522819 6.90625.9179688"/>
    <path stroke="red" d="M131.855469 103.867187c-5.365171-4.961721-1.826946.369034 4.09375.289063.775089-.010469 2.825819-1.209188 2.0625-1.074219-20.40311 3.607662-16.914388 6.876984 3.488281-.589844 3.36634-1.231989-7.225393 1.029831-10.421875 2.652344-1.510739.766841-3.023106 2.443946-2.953125 4.136719.026664.644969 16.099041-.118331 6.027344-6.777344-1.255088-.829815-10.653314.603901-12.4375 4.117188-.343762.676909-.349444 1.736746.191406 2.269531 3.605551 3.551787 15.158292 5.675086 14.867188-2.003906-.157468-4.153798-3.596932-4.482021-6.558594-.75-.677269.853433.606123 4.113504 1.019531 3.105468 1.657756-4.042199-1.025248-5.948645-4.554687-5.136718-.960128.220871-1.895242 1.10866-2.109376 2.070312-2.965555 13.31804 11.229534 5.880072 7.828126.835938-.668108-.990774-2.430228.488777-3.367188 1.230468-4.705797 3.725075-1.05794 9.480607-.011719-.46875m-64.890625-2.929687c3.727511.191656 6.84668 6.263657 9.660156 4.746094 1.860685-1.003636 6.441184-4.393053 4.339844-4.625l.820313-4.007813c-3.195605-.352732-11.599599 1.023318-9.136719 3.089844l-1.917969 6.621094c3.712925 3.115399 11.28267-11.01522 6.121094-12.738281-.498394-.166377-6.674205 3.697776-5.898437 5.585937 1.112914 2.708751 3.548479 4.750345 5.867187 6.539062 1.122402.865854 3.029018-7.101785-1.101563-5.765625-3.567727 1.15409-8.162222 5.339921-7.847656 9.59375.133201 1.801258 2.151885 3.048914 3.726563 3.933594 2.355009 1.323084 5.022539 2.755121 7.710937 2.492188 1.615723-.158023 2.817901-2.024058 3.3125-3.570313 1.09846-3.434092 2.944692-7.551523 1.265625-10.742187-5.569731-10.583942-10.003998 4.136974-7.910156 4.117187 10.104399-.095488 3.062716-16.847897-3.855469-12.148437-8.997104 6.111651 5.281179 20.276469 12.28125 12.535156 3.906084-4.319702-3.038354-18.572321-11.515625-6.109375-1.300043 1.911272 10.464518 9.632732 10.066407 1.367187-.323203-6.710305-13.366303 3.173917-12.9375 5.703126.150524.887842 1.653645-.713542 2.480468-1.070313"/>
  </g>
</svg>