<svg xmlns="http://www.w3.org/2000/svg" viewBox="0 0 30.54 55">
  <path d="M25.66 0v1.21h-1.23v1.24H23.2V1.24L7.45 1.22l-.12 1.23H6.11l-.03-1.23H4.9V0h20.76z"/>
  <path fill="#040101" d="M30.54 30.57v1.2h-1.21v-1.2h1.21z"/>
  <path fill="#100504" d="M4.9 0v1.22l-.03-.01L4.88 0h.02zm24.43 31.77h1.21v.02h-1.21v-.02zm1.21-1.2h-1.21v-.02h1.21v.02z"/>
  <path fill="#020101" d="M1.23 29.34h1.19l.02-26.89h1.22v9.77h1.21v1.21l-1.21.03v7.3l1.22-.02.02-7.29h1.21l-.01 11-1.07-.02L4.87 22H3.66v8.55H1.23v-1.21z"/>
  <path fill="#010101" d="M29.31 33h-1.2v17.13h-1.23l-.01-2.46h-1.21v-1.23h1.21v-9.77h-3.66v-1.19l2.45-.13-.14-3.58-1.06-.02v-3.62h1.18l.14 2.44h1.09l.04 1.22h2.4V33zM3.66 50.13H2.43V33h-1.2v-1.21l2.43-.03v-1.19l1.21-.02.05-2.42h1.16v3.64l-1.21.13.03 3.56h2.42l.01 1.21H3.67v9.79h1.21v1.21H3.66v2.46z"/>
  <path d="M22 53.79V55H8.54v-1.21H22z"/>
  <path fill="#040101" d="M8.54 53.79H6.09v-1.22H4.87l.01-1.23.02 1.21 3.64.01v1.23zm17.12-2.45v1.22h-1.21v1.23H22v-.02h2.43v-2.42l1.23-.01zM1.21 31.79H0v-1.24h1.21v1.24z"/>
  <path d="M26.88 50.13v1.21h-1.22v-1.22l1.22.01zM4.87 51.34H3.66v-1.22h1.22l-.01 1.22z"/>
  <path fill="#040101" d="M3.66 2.43V1.24h1.22v1.21H3.66v-.02z"/>
  <path fill="#100504" d="M2.44 2.45l-.02 26.89.02-26.89zM29.31 33v-1.21h.02L29.31 33zM4.88 1.24H3.66l1.21-.03.01.03zM3.66 2.43v.02H2.44l1.22-.02z"/>
  <path fill="#040101" d="M1.23 31.79V33l-.02-1.21h.02zm0-2.45v1.21h-.02l.02-1.21z"/>
  <path fill="#020101" d="M28.09 2.45l.02 26.89h1.2v1.21h-2.43L26.86 22l-1.22.13-.01 2.29-1.17-.01V13.46h1.18l.02 7.28 1.22.02v-7.3l-1.2-.03v-1.19l1.2-.03.01-9.76h1.2z"/>
  <path fill="#040101" d="M28.09 2.45h-2.43l-.01-1.24h1.23v1.23l1.21.01z"/>
  <path fill="#100504" d="M29.31 30.55v-1.21l.02 1.21h-.02z"/>
  <path fill="#c83e29" d="M13.45 1.23l6.09-.01v1.24h1.22v1.21H22v4.88h-2.46V7.34h-8.55v1.21H8.54V3.66h1.24V2.44h3.67V1.23z"/>
  <path fill="#910200" d="M13.45 1.23v1.21H9.78v1.22H8.54v4.89l-2.42-.01-.01-6.09h1.22l.12-1.23 6 .01z"/>
  <path fill="#d8705c" d="M22 8.55V3.67h-1.24V2.46h-1.22V1.24h3.66v1.21h1.23-.01l.01 6.1H22z"/>
  <path fill="#c53c28" d="M4.88 1.24v-.03l1.2.01.03 1.23H4.88V1.24z"/>
  <path fill="#910200" d="M25.65 1.21l-1.2.02v1.19h1.19l.01-1.16.01 1.19h-1.24.01V1.21h1.22zm-2.45.03h-3.66v-.02l3.66.02z"/>
  <path fill="#100504" d="M6.11 1.25l-.03-.03.03.03z"/>
  <path fill="#c53c28" d="M29.31 30.55h.02v1.24h-2.42l-.03-1.24h2.43z"/>
  <path fill="#910200" d="M6.1 24.45l.01-11v.01l1.21-.01.03 9.77h1.19v3.67h2.45v1.23H7.32v.01l-.01-3.67-1.21-.01z"/>
  <path fill="#910200" d="M3.66 2.45h1.22l.02 7.34h1.21v3.67-.01H4.87v.01-1.24H3.66V2.45z"/>
  <path fill="#78fdfd" d="M6.07 24.45l.02 1.21H4.88v1.23H3.66V22h1.21v2.45h1.2zm-2.41-7.33v-3.66h1.21v-.01 3.66l-1.21.01z"/>
  <path fill="#c53c28" d="M1.21 30.55h2.45v1.21l-2.45.03v-1.24z"/>
  <path fill="#78fdfd" d="M4.87 18.34l.01 2.4-1.22.02v-2.42h1.21zM3.66 30.55v-2.43h1.21v2.43H3.66z"/>
  <path fill="#f4f5f5" d="M4.87 28.12H3.66v-1.23h1.22l-.01-.01v1.24zm0-9.78H3.66v-1.22l1.21-.01v1.23z"/>
  <path fill="#100504" d="M4.87 28.12l1.22-.02v-3.64h.02v3.64h1.21v.03H6.11v3.66H4.9l1.18-.02v-3.64H4.92l-.05 2.42v-2.43zm.01-9.81l-.01-4.86h.03l-.02 4.86zm1.19 6.14h-1.2V22l.16 2.43 1.04.02zm-1.19-3.71v-2.38 2.38zm-.01-7.28H3.66l1.21-.03v.03zm-1.21 7.3l1.21.01-1.21-.01z"/>
  <path fill="#78fdfd" d="M23.21 35.48v1.19h-3.67v1.21H11v-1.21H8.54v-4.89h1.24v-2.44H11v1.22h8.56v-1.22h3.66v-1.21h1.22v3.66h1.21v3.65h-2.43zM22 31.79v-1.23h-1.23v1.23H22v2.42h1.2v-2.42z"/>
  <path fill="#d8705c" d="M23.21 36.67h3.66v9.77h-1.21v1.23h-1.23v1.21l-2.45.14-.02 1.08h-2.42v-1.22h1.23v-1.21h2.44v-1.22h1.21v-8.57h-1.21v-1.21z"/>
  <path fill="#100504" d="M25.64 31.79h-1.21v-3.66l-4.88.01v-.03h3.66v-3.67h1.21V13.46l-1.2-.03h1.2l.02-3.64v3.64h1.21v-1.22h1.23l-1.2.03v1.19l1.2.03h-1.22v4.85l-.02-4.85h-1.18v10.95l1.17.01.03-2.42v2.46h-1.21v3.64l1.21.02v2.43l-.02-2.42h-1.18v3.62l1.18.04z"/>
  <path fill="#c53c28" d="M26.88 50.13l-1.23-.01-.01-1.21-1.18-.01 2.41-.01.01 1.24z"/>
  <path fill="#d8705c" d="M26.87 48.89h-1.21v-1.22h1.21v1.22z"/>
  <path fill="#100504" d="M23.21 35.48l2.43-.04v-3.65l-.12 3.67-2.31.02zm3.67-4.93l-.01.02-1.21-.02h1.22zm0 1.22l.03.02-.03-.02z"/>
  <path fill="#910200" d="M4.88 47.67v-1.21H3.67v-9.79h3.66v1.22H6.12v7.33h1.21v1.24h1.22v1.22h1.23v1.21h2.43v1.22l-3.67.01v.01-1.24H6.11v-1.22H4.87h.01z"/>
  <path fill="#53ebeb" d="M9.78 29.34v2.44H8.54v4.89H7.33l-.01-1.21-2.43-.04.01-3.63h1.21v-3.66h1.21v-.01 1.22h2.46z"/>
  <path fill="#910200" d="M4.88 50.12H3.66v-1.23h1.22v-.01 1.24z"/>
  <path fill="#c83e29" d="M4.88 48.89H3.66v-1.22h1.22-.01l.01 1.22z"/>
  <path fill="#100504" d="M4.89 31.79v3.63l2.43.04-2.45-.13.02-3.54zm-1.23-1.24h1.21l-1.21.02v-.02z"/>
  <path fill="#910200" d="M22 53.77v.02H8.54v-1.23H22v1.21z"/>
  <path fill="#c83e29" d="M22 52.56l-14.67-.01v-1.21H6.11v-1.22l2.43.01v-.01 1.22h14.67v1.21l-1.21.01z"/>
  <path fill="#910200" d="M6.11 50.12v1.22H4.88v-1.22h1.23z"/>
  <path fill="#010000" d="M4.9 51.34h1.21l-.01 1.21H4.9v-1.21z"/>
  <path fill="#910200" d="M6.1 52.55l.01-1.21h1.22v1.21H6.1z"/>
  <path d="M22 52.56l2.43.01v1.2H22v-1.21z"/>
  <path fill="#c83e29" d="M25.66 50.12v1.22l-1.23.01v-1.22l1.23-.01z"/>
  <path fill="#910200" d="M24.43 52.57l-1.22-.02v-1.21h1.22v1.23z"/>
  <path fill="#d8705c" d="M26.88 12.21h-1.23v1.22h-1.21l.01-3.65h1.21V2.45h1.23l-.01 9.76z"/>
  <path fill="#78fdfd" d="M24.45 25.66v-1.2h1.21V22l1.22.07-.01 4.82h-1.21v-1.23h-1.21zm1.22-8.55l-.01-3.65h1.22l-.01 3.66-1.2-.01zm-.01 1.25l1.21-.02.01 2.42-1.22-.02v-2.38zm1.22 12.19h-1.22v-2.43h1.21l.01 2.43z"/>
  <path fill="#f4f5f5" d="M26.87 28.12l-1.22-.02.01-1.22v.01h1.21v1.23zm0-9.78l-1.21-.03.01-1.2 1.2.01v1.22z"/>
  <path fill="#100504" d="M25.66 18.36v2.38-2.38zm0 2.41l1.22-.01-1.22.01z"/>
  <path fill="#d8705c" d="M25.65 1.26l-.01 1.16h-1.19V1.23l1.2.03z"/>
  <path fill="#010000" d="M6.11 13.46V9.79H4.9l-.02-7.34h1.23l.04 6.1h4.84v1.23H7.34l-.02 3.67-1.21.01z"/>
  <path d="M24.44 9.79l-.02 3.64h-1.2l-.01-3.64-3.66-.03-.01-1.21 4.79.02.12-6.11h1.19v7.3l-1.2.03zM10.99 8.55V7.34h8.55v1.21h-8.55z"/>
  <path fill="#100504" d="M24.45 2.46l-.02 6.09-.01-6.1.03.01zm-.02 6.09l-2.41.01 2.41-.01zm.02 1.23l1.19-.02v-7.3l.02-.01v7.33h-1.21z"/>
  <path fill="#c83e29" d="M10.99 8.55h8.55l.01 2.46h1.22v2.44H22v2.44h1.2v6.12h-1.21v3.66h-1.23v1.22h-1.21l-.01 2.45h.01-8.56v-2.45H8.54v-3.67H7.35l-.03-9.77h1.22V11h2.45V8.55z"/>
  <path d="M10.99 28.12v1.22H7.32v-1.22h3.67zm-3.67-.02H6.11v-3.64l1.22.09-.01 3.55z"/>
  <path fill="#f4f5f5" d="M6.09 25.66v1.23l-1.22-.01.01.01v-1.23h1.21z"/>
  <path fill="#78fdfd" d="M4.87 26.88l1.22.01v1.21H4.88l-.01-1.22z"/>
  <path fill="#020101" d="M10.99 37.88h8.55v1.23h-8.55v-1.23zm0-8.54h8.56v1.22h-8.56v-1.22z"/>
  <path d="M23.21 36.67v1.21h-3.67v-1.21h3.67zm-15.88 0h3.66v1.22H7.33v-1.22zm12.21-7.33l.11-1.22 3.56.01v1.21h-3.67z"/>
  <path fill="#f4f5f5" d="M22 31.79h1.2v2.42H22v-2.42zm0 0h-1.23v-1.23H22v1.23z"/>
  <path fill="#c83e29" d="M7.33 37.89h3.66v1.22h8.55v-1.22l4.88-.01v8.57h-1.21v1.22h-2.44v1.21h-1.23v1.24l-7.33-.01v-1.22H9.78v-1.21H8.55v-1.22H7.33v-1.24H6.12v-7.33h1.21z"/>
  <path fill="#040101" d="M25.66 47.67v1.22l-3.67.02 2.44-.03v-1.21h1.23z"/>
  <path fill="#910200" d="M19.54 50.12v-.02h2.42l.04-1.19v1.22-.01h-2.46z"/>
  <path fill="#d8705c" d="M19.55 28.11v-1.22h1.21v-1.22h1.23v-3.66h1.21v-6.12H22v-2.44h-1.23v-2.44h-1.22V9.78l3.66.01.01 3.64 1.2.03v10.98h-1.21v3.67h-3.66z"/>
  <path fill="#f4f5f5" d="M24.45 25.66h1.21v1.23-.01l-1.21.01v-1.23z"/>
  <path fill="#78fdfd" d="M24.45 26.89l1.21-.01-.01 1.22h-1.2v-1.21z"/>
  <path fill="#d8705c" d="M24.45 48.91l1.21.1-.01 1.11-1.22.01.02-1.22z"/>
  <path d="M19.54 50.12H22l-.01 1.22H8.54v-1.22h11z"/>
  <path fill="#010000" d="M8.54 50.13l-2.43-.01v-1.23h2.43v1.24zm-3.66-1.24l-.01-1.22h1.24v1.22l-1.23-.01v.01z"/>
  <path fill="#c83e29" d="M4.88 48.88l1.23.01v1.23H4.88v-1.24z"/>
  <path fill="#d8705c" d="M21.99 51.34l.01-1.22v.01h2.43v1.21h-2.44z"/>
  <path fill="#910200" d="M10.99 9.78V11H8.54v2.45H7.32l.02-3.67h3.65z"/>
  <path fill="#100504" d="M23.21 9.79l-3.66-.01 3.66.01z"/>
  <path fill="#010000" d="M24.43 50.13H22v-1.22h2.43v1.22z"/>
  <path fill="#c83e29" d="M24.44 50.08l-.01-1.17h.02l-.01 1.17z"/>
</svg>