<svg xmlns="http://www.w3.org/2000/svg" viewBox="0 0 30.55 55"><path d="M4.88 55v-1.21h1.24v-1.22h1.21v1.19l15.89-.01.02-1.2h1.19l.03 1.23h1.18V55H4.88zm25.67-31.77v1.2h-1.22v-1.2h1.22z"/><path fill="#061206" d="M30.55 23.23h-1.22v-.02h1.22v.02zm-1.22 1.2h1.22v.02h-1.22v-.02z"/><path d="M2.42 25.66H1.23l-.02-1.23 2.45.02v8.48l1.22.07.04-2.42h1.16l.01 10.96H4.92l-.04-7.31-1.13-.02-.09 7.33 1.22.05v1.17l-1.22.03v9.73l-1.21.03-.03-26.89z"/><path d="M1.21 23.21L1.23 22h1.19l.05-17.1h1.19l.01 2.43h1.21v1.21l-1.21.02v9.77h3.66l-.01 1.21H4.9l.02 3.68 1.16.03v3.62H4.9l-.02-2.42-1.22-.02v-1.2H1.21v-.02zm28.12 0v.02l-2.37-.02-.08 1.22-1.22.02-.03 2.42h-1.17v-3.64l1.18-.02v-3.67h-2.42l-.01-1.21 3.72-.18-.15-9.6-1.11-.03V7.33l1.21-.05.05-2.38h1.15l.04 17.09 1.19.01.02 1.21zm-20.79-22V0H22v1.21H8.54z"/><path fill="#010301" d="M22 1.21h2.45v1.22h1.22l-.01 1.23h-.02V2.44H22V1.21z"/><path fill="#000100" d="M6.12 1.21h2.42v1.23l-2.43.01.01-1.24z"/><path fill="#0a5a00" d="M28.12 21.99L28.08 4.9l-1.2.11v1.1h-1.22l-.01-1.22 2.45-.01.02 17.11z"/><path fill="#010301" d="M2.45 52.55h2.43l.02 1.24H3.66v-1.22l-1.21-.02z"/><path d="M26.89 4.88h-1.23l.01-1.22h1.22v1.22zM3.66 4.87V3.66h1.22v1.22l-1.22-.01zM0 24.43v-1.2h1.21v1.2H0z"/><path fill="#010101" d="M2.42 25.66l.03 26.89-.03-26.89z"/><path fill="#1b3b1d" d="M3.66 4.9H2.47L2.42 22l.01-17.13 1.23.01v.02z"/><path fill="#337827" d="M6.12 1.21l-.01 1.24.01-.01-1.24.01 1.21-.03.03-1.21z"/><path fill="#061206" d="M4.88 2.45h.02v1.21h-.02V2.45zM0 24.43h1.21v.02L0 24.43zm1.21-1.2H0l1.21-.02v.02zm28.12-.04L29.31 22l.02 1.19zM1.23 22l-.01 1.19.01-1.19zm-.01 2.47l.01 1.19-.01-1.19z"/><path d="M29.33 24.43l-.02 1.23h-1.19l-.04 26.88-1.2-.02-.02-9.74h-1.2v-1.21l1.22-.03v-7.3l-1.22.02-.02 7.29h-1.21v-11l1.2.04.04 2.41h1.21v-8.55l2.45-.02z"/><path fill="#010301" d="M26.88 52.57v1.19h-1.22v-1.21l1.22.01v.01z"/><path fill="#061206" d="M26.88 52.57l1.2-.03.04-26.88-.01 26.91h-1.23zm-1.22 1.19h1.22l-1.21.03-.01-.03zm3.65-28.1l.02-1.19-.02 1.19z"/><path fill="#337827" d="M24.43 52.55l-1.21.02v1.18l-15.89.01H17l.1-1.21h3.67v-1.22H22v-4.88l2.43.02v6.08z"/><path fill="#7ec375" d="M11 53.76H7.33v-1.19l-1.22-.04.01-6.08h2.42v4.88h1.25v1.22H11v1.21z"/><path fill="#337827" d="M25.66 53.76v.02h-1.2l-.03-1.23h1.24-.01v1.21z"/><path fill="#061206" d="M6.12 46.45l-.01 6.08 1.22.04H6.09l.03-6.12z"/><path fill="#337827" d="M6.09 52.57h.03v1.22H4.9v-.03h1.19v-1.19z"/><path fill="#061206" d="M23.22 52.57l.02-.02-.02.02zm6.11-28.14h-.01v-1.2h.01v1.2z"/><path fill="#7ec375" d="M4.88 52.55H3.66v-9.76l1.22-.03.04-1.2 1.18.03-.01 3.62-1.21.01v7.33z"/><path fill="#78fdfd" d="M4.88 33l-1.22-.07.01-4.82h1.21v1.22h1.21v1.22H4.88V33z"/><path fill="#061206" d="M4.88 33v-2.45h1.21v-3.66l-1.21-.01v-2.43l.02 2.42h1.18v-3.62l-1.16-.03h1.2v3.66l4.87-.02v.03H7.33v3.67H6.11v10.99l-.02-.01-.01-10.96H4.92L4.88 33z"/><path fill="#78fdfd" d="M3.66 41.54l.01-3.66h1.2l.01 3.6-1.22.06zm1.22-17.09v2.43H3.67l-.01-2.43h1.22zm0 9.78l-.01 2.43h-1.2l-.01-2.42 1.22-.01z"/><path fill="#65b557" d="M3.66 23.23v1.2H1.22l.04-1.21 2.4.01z"/><path fill="#f4f5f5" d="M3.67 26.88l1.21.01v1.23-.01H3.67v-1.23zm0 9.78h1.2v1.22h-1.2v-1.22z"/><path fill="#061206" d="M4.87 37.88l.01-3.62.04 7.28 1.18.01-.01.01H4.92l-.04 1.2v-1.17l-1.22-.05 1.22-.06-.01-3.6zM1.26 24.44l3.62.01-3.62-.01zm3.62 18.32l-1.22.03 1.22-.03zm0-8.53l-1.22.01 1.22-.01zm-3.66-11v1.2-1.2z"/><path fill="#010101" d="M3.66 52.52v.03l-.02-.01.02-.02z"/><path d="M7.33 26.88H6.12v-3.66H4.9v-3.66h2.41v-1.23H11v-1.21h8.55v1.22H22v4.89h-1.24v2.44h-1.19v-1.21H11v1.21H7.33v1.22zm1.22-3.67v1.23h1.22v-1.23H8.54v-2.42h-1.2v2.42z" fill="#78fdfd"/><path fill="#7ec375" d="M7.31 18.32l-3.64.01V8.56l1.21-.02.02-1.21h1.22V6.11l2.43-.02.01-1.17L11 4.9v1.22H9.78v1.21H7.33v1.22h-1.2v8.56h1.2l-.02 1.21z"/><path fill="#337827" d="M3.66 4.9v-.02l1.23.01v1.23l-1.22-.01-.01-1.21z"/><path fill="#65b557" d="M3.67 6.11h1.21v1.22H3.67V6.11z"/><path fill="#061206" d="M7.32 19.54l-2.41.02-.01 3.65v-3.67h2.42zm-3.66 3.69l-2.4-.01 2.4.01z"/><path fill="#337827" d="M4.9 7.33l-.02 1.21V7.33h.02z"/><path fill="#65b557" d="M7.31 18.32l.01-.01.01.02-.02-.01z"/><path fill="#337827" d="M11 4.9H8.56v-.03L22 4.88v1.21l2.43.01v1.23h1.24v1.19l1.21.21v9.55l-3.65.04-.02-1.21h1.21V9.78h-1.21V8.54h-1.22V7.32h-1.23V6.11h-2.43V4.9H11z"/><path fill="#53ebeb" d="M20.76 25.66v-2.44H22v-4.89h1.21l.01 1.21 2.43.04-.01 3.63-1.21.01v3.65h-1.22l.01.01-.01-1.22h-2.45z"/><path fill="#65b557" d="M29.32 23.23l-.04 1.21-2.4-.01v-1.2h2.44zM25.66 6.11h1.22l-.08 1.22h-1.13V6.11h-.01z"/><path fill="#000100" d="M26.88 18.28V8.61v9.67z"/><path fill="#061206" d="M23.21 26.87h1.22v-3.65h1.19l-1.16.01v3.64h1.17l.03-2.42.01 2.43-1.22.01v3.66l-.02-.01V26.9h-1.21l-.01-.03zm2.43-3.66l.01-3.63-2.43-.04h2.42v3.67z"/><path fill="#000100" d="M26.88 7.28l.05-2.38-.05 2.38z"/><path fill="#061206" d="M26.88 24.43l2.4.01-3.62.01 1.22-.02zm2.4-1.21l-2.4.01 2.4-.01z"/><path fill="#337827" d="M23.22 18.31l.01.01-.02.01.01-.02z"/><path fill="#0a5a00" d="M8.54 2.44l.01-1.23H22v1.23H8.54z"/><path fill="#337827" d="M8.54 2.44l14.67.01v1.21H7.33V2.45l1.21-.01z"/><path fill="#0a5a00" d="M25.66 3.66l-.01 1.23-1.22-.01V3.65l1.23.01zm-2.45 0V2.45l1.22-.01v1.22h-1.22z"/><path d="M24.43 3.65V2.44h1.21v1.22l-1.21-.01z"/><path fill="#0a5a00" d="M7.33 2.45v1.21l-1.22-.01.01-1.21-.01.01h1.22z"/><path fill="#65b557" d="M24.43 4.88l1.22.01.01 1.22h.01l-1.2-.01-.04-1.22z"/><path fill="#7ec375" d="M6.09 52.57v1.19l-1.2-.02.01-1.17h1.19z"/><path fill="#337827" d="M6.09 52.57H4.9l-.01 1.17-.01-1.19h1.21v.02zM4.88 3.66l1.23-.01.01 1.23H4.88V3.66z"/><path d="M6.11 3.65l-1.21.01V2.45l1.22-.01-.01 1.21z"/><path fill="#337827" d="M23.21 26.87l.01 3.67 1.21.01v11h-1.21l-.03-9.77H22v-3.67h-2.45v-1.23h3.67l-.01-.01zm3.67 25.69l-1.22-.01h.01l-.03-7.34h-1.19l-.02-3.66h1.24v-.01l-.01 1.24h1.2l.02 9.78z"/><path fill="#78fdfd" d="M24.45 30.55v-1.22h1.22v-1.22l-.01.01 1.22-.01V33h-1.21v-2.45h-1.22zm2.43 7.33v3.66h-1.21v.01-3.67h1.21zm0-3.64v2.42h-1.21v-2.43l1.21.01zm-1.21-9.79h1.21v2.43h-1.21v-2.43z"/><path fill="#f4f5f5" d="M25.67 26.88h1.21v1.23l-1.22.01.01-1.24zm0 9.78h1.21v1.22h-1.21v-1.22z"/><path fill="#061206" d="M25.67 36.66v4.89h-.03l.02-7.29.01 2.4zm-1.2-6.11h1.2V33l-.04-2.41-1.16-.04zm2.41 3.69l-1.21-.01 1.21.01z"/><path fill="#061206" d="M25.67 41.54h1.21l-1.22.03.01-.03z"/><path fill="#010101" d="M26.89 52.55l-.01-.03.02.02-.01.01z"/><path fill="#65b557" d="M11 53.76v-1.21H9.79v-1.22H8.54v-4.88H11v1.21h8.55v-1.21H22v4.88h-1.23v1.22H17.1l-.1 1.21h-6z"/><path d="M22 46.45h-2.45v-1.21l3.66-.05.01-3.64h1.21l.02 3.66h1.19l.03 7.34h-1.24l-.05-6.1H22z"/><path fill="#061206" d="M10.95 46.45H6.12h4.83z"/><path d="M10.95 46.45l-4.86.11v5.99H4.9v-7.31l1.19-.03v-3.65l1.24.01v3.64l3.66.03.01 1.21h-.05z"/><path fill="#061206" d="M6.07 45.22l-1.17.02v7.31h-.02v-7.33h1.19zm.03-3.63l-.01 3.62.01-3.62z"/><path fill="#f4f5f5" d="M6.09 28.11v1.22H4.88v-1.22.01l1.21-.01z"/><path fill="#65b557" d="M11 46.43v-2.44H9.77v-2.44H8.54v-2.44h-1.2v-6.12h1.21v-3.66h1.23v-1.22h1.21v-2.45h8.56v2.45H22v3.67h1.19l.03 9.77h-1.23V44h-2.44v2.43H11z"/><path fill="#7ec375" d="M10.99 26.89v1.22H9.78v1.22H8.55v3.66H7.34v6.12h1.2v2.44h1.23v2.44H11v1.23l-3.67-.01v-3.64l-1.22-.02V30.56h1.22v-3.67h3.66z"/><path d="M10.99 25.66v1.2l-3.66.02v-1.22H11h-.01z"/><path fill="#78fdfd" d="M6.09 28.11l-1.21.01v-1.23h1.21v1.22z"/><path fill="#010101" d="M19.55 25.66h-8.56.01v-1.21h8.54l.01 1.21z"/><path fill="#010301" d="M7.33 18.33v-1.22l12.22-.02-8.55.03v1.21H7.33z"/><path d="M23.22 18.31l-.01.02h-3.66v-1.22l3.64-.01.03 1.21zm-3.67 8.55v-1.2h3.66l.01 1.22-3.67-.02z"/><path fill="#f4f5f5" d="M8.55 23.21H7.34v-2.42h1.2v2.42h.01zm-.01 0h1.23v1.23H8.55v-1.23h-.01z"/><path fill="#061206" d="M11 24.45v1.21h-.02l.02-1.21zm8.57 1.21h-.02l-.01-1.21.03 1.21z"/><path fill="#65b557" d="M23.21 17.11l-3.66-.02v-1.21H11v1.21l-4.87.02V8.55h1.2V7.33h2.45V6.12H11V4.9h7.33v1.21h2.43v1.21h1.23v1.22h1.22v1.24h1.21v7.33h-1.21z"/><path fill="#010101" d="M8.56 4.87l-.01 1.22-2.43.02v1.22H4.88V6.11l1.22-.02.02-1.21 2.44-.01z"/><path fill="#337827" d="M8.55 6.09l.01-1.17-.01 1.17z"/><path fill="#65b557" d="M6.1 6.09H4.88l.01-1.2 1.21-.01v1.21z"/><path fill="#1b3b1d" d="M4.88 6.09l1.19.01-1.19-.01z"/><path d="M8.56 4.87l-.01.01V3.66h13.43L22 4.88 8.56 4.87zm15.87.03v1.2l-2.41.01L22 4.9h2.43z"/><path fill="#000100" d="M24.43 6.1v-.01l1.24.02v1.22h-1.24V6.1z"/><path fill="#061206" d="M24.43 4.9H22v-.02h2.43v.02zM22 6.09l.02.02-.02-.02z"/><path d="M24.43 30.54h-1.21V26.9h1.21v3.64z"/><path fill="#78fdfd" d="M25.66 26.89v1.23l.01-.01h-1.22v-1.22h1.21z"/><path fill="#f4f5f5" d="M24.45 28.11h1.22v1.22h-1.22v-1.22z"/><path fill="#65b557" d="M8.55 3.66v1.22H6.12V3.66h2.43zm15.88 1.22H22V3.66h2.43v1.22z"/><path fill="#061206" d="M22 3.66l-.01.02-.01-.02H22z"/><path fill="#0a5a00" d="M24.45 6.09h-.02l.01-1.17.01 1.17zm1.18.02l-1.16-.01 1.16.01z"/><path fill="#1b3b1d" d="M6.1 6.09V4.88v1.21z"/><path fill="#061206" d="M19.55 26.86l.02.02h-.02v-.02z"/><path d="M19.55 46.45v1.21H11v-1.21h8.55z"/><path fill="#061206" d="M19.59 46.45h2.36-2.36z"/><path fill="#337827" d="M19.55 45.22V44h2.44v-2.45h1.23l-.01 3.64-3.66.03z"/><path fill="#061206" d="M19.55 46.45H11v-.02h8.55v.02zm0-1.23h.02l-.02.02v-.02zm-12.22-.01l3.67.01-.01.02-3.66-.03zm-1.19-3.66l1.19.02-1.19-.02z"/><path fill="#000100" d="M11 17.09v-1.21h8.55v1.21H11z"/><path fill="#337827" d="M19.55 17.09l3.64.01-3.64.01v-.02z"/></svg>