<svg xmlns="http://www.w3.org/2000/svg" viewBox="0 0 204 102">
  <path fill="#fff" d="M204 102H45v-4h-8v-4h-4l-.85-4.25L20 90l.63-3.69L16 86v-8h-4v-5H8v-4H4v-4H0v-8h4v-4h8v-8h4v-8h4v-4h13l-1-4h4v-4h5V12h4V8h8V4h4V0h16.2v4.2l4.12-.13.08 4.33h4.2v7.8h4.2v-3.6h3.6l.6 4.2h3.6v3.6l4.2.6v7.8h4.2v-4.2h4.2v-12h4.2V8.4h12V4.2h4.2V0H204v102z"/>
  <path fill="#acd5fe" d="M85.64 73.5v3.76l3.84.54.46 3.66 3.48.21.74-4.06h15.63l.58-3.91 3.69-.07v7.75l-3.81.59-.23 3.74h-15.8l-.62 3.96h-7.65l-.63-3.88h-7.46l-.58-3.9-3.53-.12-.69 3.98H57.12v7.91l-3.76.24-.53-3.77-3.8-.53-.24-3.79h-7.65l-.63-4.03h-7.54l-.37-4.19-.02.02h7.82l.57-3.89 3.53-.11.62 3.96h15.73l.5 3.94h7.68l.61-3.86h7.45l.67-4.12h7.9l-.02-.03zm81.64 0v3.96h7.89l.51-3.77h7.75v7.87l-3.6.23-.52 3.81h-7.64l-.59-3.8h-7.59l-.48 3.71-3.61.43-.43 3.61-3.81.54-.23 3.69h-7.76l-.46-3.65-3.61-.44-.59-3.89h-7.5l-.56-3.85-3.64-.45-.11-3.78 3.8-.24.25-3.81h7.94v7.82h12.11l.52-3.82h7.47l.59-3.89 3.92-.25-.02-.03zM53.01 32.71v-3.76l3.8-.52.48-3.71h7.81v7.97H52.99l.02.02z"/>
  <path d="M142.77 98.04l16.31-.08-.07-.06v4.1h-16.18v-4.02l-.06.06zM93.7 97.9v4.1H77.52v-4.02l-.06.06 16.31-.08-.07-.06zm-32.65 0v4.1H44.87v-4.02l-.06.06 16.3-.08-.06-.06zm138.79-61.01h4.1v16.18h-4.02l.06.06-.08-16.3-.06.06zM93.71 20.57h4.13v8h4.09l-.06-.06v4.09h-8.1V20.5l-.06.07zM73.43 4.09l-16.3.08.06.06V.13h16.19v4.02l.05-.06zm69.47-.08l-16.38.16.07.06V.14h16.26v3.93l.05-.06zm12.25 16.33h-8.24V8.18l-.05.06h4.01v8.03h4.22v4.13l.06-.06zm-49.06 4.22V12.32h4.08l-.06-.06V24.5h-4.08l.06.06zm8.03 73.56l12.38-.08-.06-.06v3.99h-12.26v-3.91l-.06.06zM40.78 24.56V12.24h4l-.06-.06V24.5h-4l.06.06z"/>
  <path d="M110.17 12.32V8.24h12.25l-.06-.06v4.08h-12.25l.06.06zM32.69 89.73h-12.4l.01-3.92-.06.07h12.4l-.01 3.91.06-.06zm-.13-57.06v4.16H20.39l.07.05v-4.15h12.16l-.06-.06zm155.11 4.08v3.98h-12.18v-3.98l-.06.06h12.3l-.06-.06zM44.87 97.98H36.7V93.9l-.05.06h8.16v4.08l.06-.06zm142.8-8.16v4.15h-8.08l.06.06v-4.15h8.08l-.06-.06z"/>
  <path fill="#acd5fe" d="M130.56 36.79l.2-3.95h7.74l.1 3.93h-8.06l.02.02z"/>
  <path d="M16.29 44.97v-8.03l4.16-.06-.06-.05v8.08h-4.16l.06.06zM52.97 8.18v4.01h-8.25l.06.05v-4h8.25l-.06-.06zM4.13 57.29V53.2h7.94v4.04l-8-.01.06.06zm183.6 32.59V85.9h8.05v3.92h-8.11l.06.06z"/>
  <path d="M4.04 65.32H.06v-7.99l4.07-.04-.06-.06-.09 8.15.06-.06zm12.19 12.31h4.01v8.24l.06-.06h-4.01v-8.24l-.06.06zm159.26-40.88h-4.08v-8.16l-.06.05h4.08v8.17l.06-.06zM77.52 97.98h-8.16V93.9l-.06.06h8.16v4.08l.06-.06zm24.35-4.16v4.09H93.7l.07.05v-4.08h8.16l-.06-.06zm4.17.14h8.03l.06 4.16.05-.06h-8.09V93.9l-.05.06zm65.23.08l8.38-.01-.06-.06v3.93h-8.27l.01-3.92-.06.06zm-4.01-.14v4.01h-8.24l.06.05-.01-4h8.25l-.06-.06zM77.4 8.3h4.14v8.1l.06-.06h-4.14v-8.1l-.06.06zm65.43 89.68h-8.16V93.9l-.06.06h8.16v4.08l.06-.06z"/>
  <path fill="#acd5fe" d="M32.6 77.59h-3.83l-.25-4.09-.02.03h3.83l.25 4.08.02-.02z"/>
  <path d="M146.91 8.18h-3.95l-.06-4.17-.05.06h4.01v4.17l.05-.06zm-24.49.06V4.28l4.16-.05-.06-.06v4.01h-4.16l.06.06zm69.34 65.31h4.07v4.08l.06-.06h-4.08v-4.08l-.05.06zM53.03 8.24V4.28l4.16-.05-.06-.06v4.01h-4.16l.06.06z"/>
  <path d="M195.83 77.63h3.94l.2 3.97h-4.08v-4.03l-.06.06zM36.7 93.9h-3.95l-.06-4.17-.06.06h4.02v4.17l.05-.06zM73.38 4.15h3.94l.09 4.15.05-.06h-3.87l-.16-4.15-.05.06zm53.12 93.89v-4.16h4l-.06-.06v4.16h-4l.06.06zM69.36 93.9l-4.14-.01.05.06v-3.93l4.03-.19v4.13l.06-.06zm36.73 0l-4.22-.08.06.06v-3.94h4.11v4.02l.05-.06z"/>
  <path d="M134.67 93.9l-4.23-.08.06.06v-3.94h4.11v4.02l.06-.06zm32.65.06v-3.98h3.91l.04 4.06.06-.06-4.07-.08.06.06zm-102.1-.07v3.96l-4.17.06.06.05v-4.01h4.16l-.05-.06zm24.54-77.55l-4.06.08.07.05v-4.09h3.93v4.02l.06-.06z"/>
  <path d="M81.54 16.4l4.23.07-.07-.05v3.93h-4.1v-4.01l-.06.06zm8.16 0h3.96l.06 4.16.05-.06h-4.01v-4.16l-.06.06zm73.61 3.94l-4.21.08.06.06V16.5h4.1v3.9l.05-.06zm-4.21.08v3.98h-3.91l-.04-4.06-.06.06 4.07.08-.06-.06zm8.3 4h-4.09v-4.08l-.05.06h4.08v4.08l.06-.06zm-126.68.08v4.16h-4l.06.06v-4.16h4l-.06-.06z"/>
  <path fill="#acd5fe" d="M81.58 28.6h-3.87l-.18-3.79 3.71-.28.32 4.1.02-.03z"/>
  <path d="M106.03 24.5v3.96l-4.16.05.06.06v-4.01h4.16l-.06-.06zm65.38 4.09h-3.96l-.06-4.17-.05.06h4.01v4.16l.06-.05zM32.62 32.73v-3.96l4.16-.05-.06-.06v4.01h-4.16l.06.06z"/>
  <path fill="#acd5fe" d="M81.56 28.63h3.87l.19 3.81-3.76.16-.28-4-.02.03zm65.33 4.06h-3.9l-.07-3.84 3.67-.14.28 4 .02-.02z"/>
  <path d="M195.89 32.67l-4.06.07.07.06v-4.09h3.93v4.02l.06-.06z"/>
  <path fill="#acd5fe" d="M52.99 32.69v3.89l-3.84.08-.14-3.68 4-.27-.02-.02zm93.88.02h3.87l.19 3.81-3.76.17-.28-4-.02.02z"/>
  <path d="M187.73 36.81v-3.95l4.16-.06-.06-.06.01 4.01h-4.17l.06.06zm8.1-4.08h3.96l.05 4.16.06-.06h-4.01v-4.16l-.06.06z"/>
  <path fill="#acd5fe" d="M130.54 36.77v3.87l-3.81.18-.16-3.75 3.99-.28-.02-.02z"/>
  <path d="M16.23 44.91v3.94l-3.97.18v-4.06h4.03l-.06-.06zm183.69 8.16v3.94l-3.98.21v-4.09h4.04l-.06-.06zm-4.17 12.24h-3.85v-3.92h3.85v3.92zm-191.77.07h4.17l-.01 4.01.06-.07H4.04v-4l-.06.06zm8.3 8.02H8.2v-4.08l-.06.07 4.09-.01v4.09l.05-.07z"/>
  <path fill="#acd5fe" d="M28.52 73.5h-3.9l-.07-3.82 3.63-.24.32 4.09.02-.03zm57.14.03v-3.87l3.81-.19.17 3.76-4 .27.02.03zm81.64 0v-3.87l3.81-.19.17 3.76-4 .27.02.03z"/>
  <path d="M191.81 73.49h-3.93l-.18-3.98h4.06v4.04l.05-.06zM16.29 77.57h-3.95l-.06-4.17-.05.07 4-.01v4.17l.06-.06z"/>
</svg>