<svg xmlns="http://www.w3.org/2000/svg" viewBox="0 0 142.77 127.51">
  <path fill="#6a7162" d="M142.77 121.6v2.88H30.33v-2.88h112.44z"/>
  <path fill="#969f88" d="M142.77 121.6H30.33l-.12-3.01 112.56-.04v3.05z"/>
  <path fill="#acb69d" d="M142.77 118.55l-103.43-.04.17-3.04 100.29.01v-9.13l2.97-.02v12.22z"/>
  <path fill="#6a7162" d="M136.78 97.22h3.04v3.04H33.28v-3.04h103.5z"/>
  <path fill="#acb69d" d="M36.37 94.19h-3.08v-3.04l.02-.02H139.8l.01.02v3.04H36.37zM33.29 2.88V0h106.52v2.88l-.01.02H33.31l-.02-.02z"/>
  <path fill="#0f100d" d="M36.37 94.19h100.37l.04 3.03H36.32l.05-3.03z"/>
  <path fill="#acb69d" d="M33.29 91.15h-2.88V2.88h2.88l.02.02v88.23l-.02.02zM139.81 2.88h2.89v88.27h-2.89l-.01-.02V2.9l.01-.02z"/>
  <path fill="#0f100d" d="M42.38 115.47h-2.87l-.17 3.04-15.2.08v-3.08l-.06.07 12.19-.18.13-2.91h5.97l.01 2.98z"/>
  <path fill="#687060" d="M18.05 124.61v2.9H2.9v-2.9l-.02.03h15.19l-.02-.03z"/>
  <path fill="#acb69d" d="M5.91 115.5v-3.01h9.19l.03 2.98-3.01.16-.27 5.92-2.94-.15v-5.89H5.88l.03-.01zm27.4-.1l-3.09.01.12-9.08 2.96.02.01 9.05z"/>
  <path fill="#0f100d" d="M15.13 115.47l-.03-2.98h8.98v3.09l.06-.07-9.01-.04z"/>
  <path fill="#969f88" d="M2.9 124.61H0v-6.08h2.89l-.01-.03v6.14l.02-.03zm15.16-6.08h2.9v6.08h-2.9l.01.03.01-6.14-.02.03zm124.71-12.2l-2.97.02-.02-3.02.05-.05 2.93.01.01 3.04z"/>
  <path fill="#7a806f" d="M2.89 118.53v-3.03h3.02l-.03.01v2.99h-3l.01.03z"/>
  <path fill="#969f88" d="M33.3 106.35l-2.96-.02v-3.04l2.93-.01.05.05-.02 3.02z"/>
  <path fill="#7a806f" d="M15.13 115.47l3.01.07-.08 2.99.02-.03h-2.87l-.33-3.02.25-.01zm127.63-12.18l-2.93-.01-.04-3.02h2.97v3.03zm-109.49-.01l-2.93.01v-3.03h2.97l-.04 3.02z"/>
  <path fill="#bfcbaf" d="M139.8 106.35v9.13H63.69v-5.9l-2.89-.38-.15-2.84zm-24.49 6v-2.73H79.1v2.73zm9.15-2.77h-2.74v2.71h2.74v-2.71zm6.11 0h-2.82v2.72h2.82v-2.72zm-97.26 5.82v-9.05h24.37l-.16 2.87-2.89.37v5.88H42.38v-5.89h-6l-.13 5.82zm18.13-5.84h-5.75v2.72h5.75v-2.72z"/>
  <path fill="#6a7162" d="M54.63 115.48v-5.88l2.89-.37.16-2.87h2.97l.15 2.84 2.9.38v5.9h-9.07z"/>
  <path fill="#969f88" d="M33.27 103.28l.04-3.02h106.48l.04 3.02-.05.05H33.32l-.05-.05z"/>
  <path fill="#bfcbaf" d="M139.8 2.9v88.23H33.31V2.9zM130.46 85V9.15H42.64V85z"/>
  <path fill="#6a7162" d="M36.4 112.49v-2.91h5.97v2.91H36.4z"/>
  <path fill="#bfcbaf" d="M14.88 115.48l.33 3.02h2.87l-.01 6.14H2.88v-6.14h3v-2.99h3.03v5.89l2.94.15.27-5.92 2.76-.15z"/>
  <path fill="#acb69d" d="M33.32 103.33h106.46l.02 3.02H33.3l.02-3.02z"/>
  <path fill="#6a7162" d="M115.31 112.31H79.1v-2.73h36.21v2.73z"/>
  <path fill="#00c23d" d="M124.46 109.54v2.71h-2.74v-2.71h2.74zm6.11.04v2.72h-2.82v-2.72h2.82z"/>
  <path fill="#6a7162" d="M51.44 109.56v2.72h-5.75v-2.72h5.75z"/>
  <path fill="#687060" d="M130.46 85H42.64V9.15h87.82V85zm-85-48.6v45.44h81.94V12.09h-82v24.29z"/>
  <path fill="#0f100d" d="M91.14 12.09h36.34v69.73H45.54V60.73h11.83l.54-2.87 2.78-.44v-2.79h5.81l.54-2.86 2.78-.43v-2.8h5.75l.63-2.84 2.52-.47.49-2.58 2.83-.48v-5.56l2.99-.5v-8.87l2.92-.17.27-5.7 2.92-.48v-8.8z"/>
  <path fill="#31332e" d="M78.96 12.07l6.08.01-.01 15.16H82v5.74l-2.93.67-.28 5.5-2.68.53-.47 2.57-2.58.44-.42 2.6-2.82.43v2.82H64l-.54 2.85-2.77.44v2.8H51.9l-.71 3.05h-5.66l-.01-9.13h5.7l.67-2.95 5.5-.25.55-2.78 5.56-.26.47-2.71 2.6-.4.39-2.55 2.74-.62.26-5.49 2.69-.54.46-2.56 2.82-.48v-8.53l3.03-.69v-5.67z"/>
  <path fill="#40433c" d="M78.96 12.07v5.67l-3.03.69v8.53l-2.82.48-.46 2.56-2.69.54-.26 5.49-2.74.62-.39 2.55-2.6.4-.47 2.71-5.56.26-.55 2.78-5.5.25-.67 2.95h-5.7l-.02-12.17h5.72l.67-2.94 5.63-.28.28-5.8 5.98-.27V21.4l3.01-.51v-8.84l12.17.02z"/>
  <path fill="#4f534b" d="M66.79 12.05v8.84l-3.01.51v5.69l-5.98.27-.28 5.8-5.63.28-.67 2.94H45.5V12.05h21.29z"/>
  <path fill="#252823" d="M85.03 27.24l.01-15.16 6.1.01v8.8l-2.92.48-.27 5.7-2.92.17zm-39.5 30.44h5.66l.71-3.05h8.79v2.79l-2.78.44-.54 2.87H45.54l-.01-3.05zm24.29-9.14v-2.82l2.82-.43.42-2.6 2.58-.44.47-2.57 2.68-.53.28-5.5 2.93-.67v-5.74h3.03v8.87l-2.99.5v5.56l-2.83.48-.49 2.58-2.52.47-.63 2.84h-5.75zm-9.13 6.09v-2.8l2.77-.44.54-2.85h5.82v2.8l-2.78.43-.54 2.86h-5.81z"/>
</svg>